<svg xmlns="http://www.w3.org/2000/svg" viewBox="0 0 511.272 511.272"><title>Рассрочка</title><path d="M453.374 151.306l28.272-14.96a257.842 257.842 0 00-17.888-28.992l-26.064 18.576a223.472 223.472 0 0115.68 25.376zM418.798 102.842l23.344-21.872a261.243 261.243 0 00-24.88-23.28l-20.288 24.752a228.51 228.51 0 0121.824 20.4z"/><path d="M495.582 167.514h-.032l-30.016 11.024c42.755 116.164-16.756 244.994-132.92 287.748C216.45 509.04 87.62 449.53 44.866 333.365S61.622 88.372 177.786 45.617a224.131 224.131 0 01194.948 19.496l16.816-27.2C269.306-36.036 111.88 1.494 37.931 121.739s-36.419 277.67 83.826 351.619 277.67 36.419 351.619-83.826c41.019-66.697 49.202-148.517 22.206-222.018z"/><path d="M319.198 255.85c35.346 0 64-28.654 64-64 0-35.346-28.654-64-64-64h-112v96h-64v32h64v32h-64v32h64v64h32v-64h64v-32h-64v-32h80zm-80-96h80c17.673 0 32 14.327 32 32s-14.327 32-32 32h-80v-64z"/></svg>
