<svg viewBox="0 0 512.003 512" xmlns="http://www.w3.org/2000/svg"><title>Материнский капитал</title><path d="M326.176 287.012c2.629 0 5.207-1.07 7.07-2.93a10.046 10.046 0 002.93-7.07c0-2.63-1.063-5.207-2.93-7.067a10.066 10.066 0 00-7.07-2.93 10.08 10.08 0 00-7.07 2.93 10.07 10.07 0 00-2.93 7.067c0 2.629 1.07 5.21 2.93 7.07s4.44 2.93 7.07 2.93zm0 0"/><path d="M507.152 338.02L427.66 231.156v-86.472c0-19.196-9.754-36.153-24.562-46.184 12.57-9.48 20.71-24.531 20.71-41.45v-5.16c0-28.609-23.277-51.89-51.886-51.89-28.613 0-51.89 23.281-51.89 51.89v5.16c0 16.919 8.14 31.97 20.71 41.45-14.808 10.027-24.562 26.988-24.562 46.184v12.265c0 .028-.004.051-.004.078v30.668l-61.207 22.164c-15.48 5.606-23.543 22.711-18.059 38.207h-5.941a10.002 10.002 0 00-9.461 6.762l-10.653 31.133H142.98V172.977c0-5.52-4.476-9.997-10-9.997C59.656 162.98 0 222.633 0 295.96c0 63.095 44.168 116.063 103.207 129.618L87.25 441.54a37.388 37.388 0 00-18.594-4.93c-20.765 0-37.66 16.891-37.66 37.66 0 20.766 16.895 37.66 37.66 37.66 20.77 0 37.664-16.894 37.664-37.66a37.45 37.45 0 00-4.93-18.593l26.829-26.828c1.582.054 3.168.093 4.761.093 1.598 0 3.184-.039 4.766-.093l26.828 26.828a37.41 37.41 0 00-4.93 18.594c0 20.765 16.895 37.66 37.66 37.66 20.77 0 37.665-16.895 37.665-37.66 0-20.77-16.895-37.66-37.664-37.66a37.384 37.384 0 00-18.59 4.93l-15.957-15.962c59.039-13.555 103.207-66.523 103.207-129.617 0-5.524-4.477-10-10-10h-23.973l6.125-17.899h27.223c.328 0 .648-.015.969-.046a30.023 30.023 0 009.09-1.75l80.988-29.329c11.832-4.285 19.781-15.617 19.781-28.203v-51.707c0-5.523-4.477-10-9.996-10-5.524 0-10 4.477-10 10v51.707c0 4.192-2.649 7.973-6.594 9.399L268.59 247.46a9.921 9.921 0 01-3.403.605 10.034 10.034 0 01-9.406-6.601c-1.875-5.184.817-10.926 6-12.805l67.801-24.555a9.998 9.998 0 006.594-9.398v-21.652c0-.028.004-.051.004-.078v-28.293c0-19.711 16.035-35.747 35.742-35.747s35.742 16.036 35.742 35.747v89.785c0 2.148.695 4.242 1.977 5.968l81.468 109.516a4.49 4.49 0 01.79 3.688c-.169.754-.684 2.152-2.27 3.007l-5.453 2.954c-45.168 24.457-96.196 37.382-147.559 37.382h-.437v-79.976c0-5.52-4.477-10-10-10-5.52 0-9.996 4.48-9.996 10v89.976c0 5.52 4.476 10 9.996 10h10.437c.406 0 .813-.007 1.219-.011v63.297c0 17.457 14.207 31.66 31.664 31.66 17.46 0 31.664-14.203 31.664-31.66v-69.704c32.254-6.445 63.527-17.675 92.535-33.379l5.453-2.953a24.527 24.527 0 008-36.214zM68.656 491.934c-9.738 0-17.664-7.926-17.664-17.664 0-9.743 7.926-17.665 17.664-17.665 9.742 0 17.664 7.922 17.664 17.665 0 9.738-7.922 17.664-17.664 17.664zM214.97 474.27c0 9.738-7.922 17.664-17.664 17.664-9.739 0-17.664-7.926-17.664-17.664 0-9.743 7.925-17.665 17.664-17.665 9.742 0 17.664 7.922 17.664 17.665zm-91.985-290.856v102.547H20.434c4.789-54.34 48.21-97.758 102.55-102.547zm9.996 225.531c-58.93 0-107.468-45.351-112.546-102.988h29.152c2.984 25.406 17.262 47.957 39.477 61.605a9.95 9.95 0 005.226 1.481c3.36 0 6.64-1.691 8.527-4.766 2.891-4.703 1.422-10.859-3.285-13.75-16.234-9.98-26.91-26.187-29.77-44.57H217.93c.023 0 .047.004.074.004.023 0 .047-.004.074-.004h27.45c-5.079 57.637-53.614 102.988-112.548 102.988zM340.027 57.051v-5.16c0-17.586 14.305-31.891 31.891-31.891s31.894 14.309 31.894 31.89v5.16c0 17.583-14.308 31.891-31.894 31.891s-31.89-14.308-31.89-31.89zM381.16 480.27c0 6.433-5.23 11.664-11.664 11.664s-11.664-5.23-11.664-11.664v-63.985a326.146 326.146 0 0023.328-2.355zm0 0"/><path d="M132.98 359.953c-.285 0-.566-.004-.851-.008-5.563-.11-10.063 4.328-10.145 9.852-.082 5.52 4.329 10.062 9.852 10.144.379.008.762.008 1.144.008 5.524 0 10-4.476 10-10 0-5.52-4.476-9.996-10-9.996zm0 0"/></svg>
