<svg xmlns="http://www.w3.org/2000/svg" viewBox="0 0 512.001 512.001"><title>Ипотека</title><path d="M447.145 249.998a9.972 9.972 0 005.966 1.977 9.986 9.986 0 007.081-2.936l48.887-48.986a9.999 9.999 0 00-1.109-15.088L458 147.795V48.001c0-5.523-4.478-10-10-10h-64c-5.522 0-10 4.477-10 10v37.311L261.969 1.978a10 10 0 00-11.938 0l-87.565 65.136c-4.431 3.296-5.352 9.561-2.055 13.992 3.297 4.432 9.562 5.352 13.992 2.055L256 22.465 486.753 194.11l-34.609 34.68L261.969 87.329a10 10 0 00-11.938 0L59.857 228.79l-34.609-34.68 89.673-66.703c4.431-3.296 5.352-9.561 2.055-13.992-3.297-4.432-9.561-5.351-13.992-2.055L4.031 184.965a10 10 0 00-1.109 15.088l48.887 48.986a10 10 0 0013.047.959L72 244.683v79.318H20c-11.028 0-20 8.972-20 20v148c0 11.028 8.972 20 20 20h68c9.989 0 18.267-7.369 19.742-16.951l46.509 16.383a9.994 9.994 0 003.322.568h142.792a70.008 70.008 0 0045.173-16.549l108.17-91.543c8.569-7.252 13.646-17.418 14.292-28.626.647-11.208-3.225-21.891-10.902-30.081A40.385 40.385 0 00440 334.359v-89.676l7.145 5.315zM438 132.918l-44-32.729V58.001h44v74.917zM88 492.001H20v-148h24v74c0 5.523 4.478 10 10 10s10-4.477 10-10v-74h24v8.014l.011 128.549c-.011.231-.005.461 0 .69l.002 10.747H88zm354.505-133.122c3.893 4.152 5.855 9.568 5.528 15.25-.328 5.682-2.901 10.836-7.246 14.513l-108.17 91.543a49.982 49.982 0 01-32.253 11.816H159.283L108 473.936V362.001h73.355c9.89 0 19.466 2.899 27.694 8.385l66.899 44.599a12.93 12.93 0 015.606 8.567 12.931 12.931 0 01-2.305 9.976c-3.7 5.069-10.497 6.789-16.159 4.081l-57.233-27.338c-4.986-2.381-10.954-.271-13.334 4.713-2.381 4.983-.271 10.953 4.713 13.333l57.233 27.338a32.92 32.92 0 0014.219 3.227c10.287 0 20.326-4.809 26.717-13.566 5.359-7.344 7.433-16.319 5.84-25.271-1.594-8.951-6.638-16.658-14.203-21.702l-66.899-44.599a69.71 69.71 0 00-38.787-11.743h-73.457c-.874-8.757-7.418-15.868-15.898-17.597v-94.598l164-121.991 164 121.991v103.278H420a40.393 40.393 0 00-18.599 8.808l-79.604 66.912c-4.228 3.553-4.774 9.861-1.221 14.089 3.555 4.228 9.862 4.773 14.09 1.22l79.604-66.912c8.363-7.029 20.766-6.292 28.235 1.678z"/><path d="M146.649 89.531a10.072 10.072 0 00-7.069-2.93c-2.641 0-5.221 1.07-7.08 2.93-1.86 1.86-2.92 4.44-2.92 7.07s1.06 5.21 2.92 7.07a10.1 10.1 0 007.08 2.93c2.63 0 5.199-1.07 7.069-2.93 1.86-1.86 2.931-4.44 2.931-7.07s-1.07-5.21-2.931-7.07zM294.24 193.245c-4.809-2.716-10.909-1.019-13.624 3.792L214.07 314.914c-2.715 4.809-1.018 10.909 3.792 13.624a9.997 9.997 0 0013.624-3.792l66.546-117.877c2.715-4.809 1.018-10.909-3.792-13.624zM300.048 268.907c-18.748 0-34 15.252-34 34 0 18.748 15.252 34 34 34s34-15.252 34-34-15.252-34-34-34zm0 48c-7.72 0-14-6.28-14-14s6.28-14 14-14 14 6.28 14 14-6.28 14-14 14zM212.053 172.012c-18.748 0-34 15.252-34 34s15.252 34 34 34c18.748 0 34-15.252 34-34s-15.252-34-34-34zm0 48c-7.72 0-14-6.28-14-14s6.28-14 14-14 14 6.28 14 14-6.28 14-14 14zM61.569 450.431c-1.859-1.86-4.439-2.93-7.069-2.93s-5.21 1.07-7.07 2.93c-1.87 1.86-2.93 4.44-2.93 7.07s1.06 5.21 2.93 7.07c1.86 1.86 4.44 2.93 7.07 2.93s5.21-1.07 7.069-2.93c1.86-1.86 2.931-4.44 2.931-7.07s-1.07-5.21-2.931-7.07z"/></svg>
