<svg width="342" height="55" viewBox="0 0 342 55" fill="none" xmlns="http://www.w3.org/2000/svg">
<path d="M12.1245 14.376L12.5273 19.0269C15.335 15.438 19.1069 13.6436 23.8433 13.6436C28.8481 13.6436 32.2295 15.6333 33.9873 19.6128C36.6729 15.6333 40.5547 13.6436 45.6328 13.6436C53.665 13.6436 57.791 18.502 58.0107 28.2188V54H45.6328V28.9878C45.6328 26.9614 45.291 25.4844 44.6074 24.5566C43.9238 23.6289 42.6787 23.165 40.8721 23.165C38.4307 23.165 36.6118 24.2515 35.4155 26.4243L35.4521 26.937V54H23.0742V29.061C23.0742 26.9858 22.7446 25.4844 22.0854 24.5566C21.4263 23.6289 20.1689 23.165 18.3135 23.165C15.9453 23.165 14.1387 24.2515 12.8936 26.4243V54H0.552246V14.376H12.1245ZM84.2314 54.7324C78.1523 54.7324 73.2329 52.9258 69.4731 49.3125C65.7134 45.6748 63.8335 40.9507 63.8335 35.1401V34.1147C63.8335 30.062 64.5781 26.4854 66.0674 23.3848C67.5811 20.2842 69.7783 17.8916 72.6592 16.207C75.54 14.498 78.958 13.6436 82.9131 13.6436C88.4795 13.6436 92.874 15.377 96.0967 18.8438C99.3193 22.2861 100.931 27.0957 100.931 33.2725V38.0698H76.3945C76.834 40.2915 77.7983 42.0371 79.2876 43.3066C80.7769 44.5762 82.7056 45.2109 85.0737 45.2109C88.98 45.2109 92.0317 43.8438 94.229 41.1094L99.8687 47.7744C98.3306 49.8984 96.1455 51.5952 93.3135 52.8647C90.5059 54.1099 87.4785 54.7324 84.2314 54.7324ZM82.8398 23.165C79.2266 23.165 77.0781 25.5576 76.3945 30.3428H88.8457V29.3906C88.8945 27.4131 88.394 25.8872 87.3442 24.813C86.2944 23.7144 84.793 23.165 82.8398 23.165ZM120.303 4.5249V14.376H126.822V22.9453H120.303V41.0728C120.303 42.562 120.572 43.5996 121.109 44.1855C121.646 44.7715 122.708 45.0645 124.295 45.0645C125.516 45.0645 126.541 44.9912 127.371 44.8447V53.6704C125.149 54.3784 122.83 54.7324 120.413 54.7324C116.165 54.7324 113.028 53.7314 111.001 51.7295C108.975 49.7275 107.962 46.688 107.962 42.6108V22.9453H102.908V14.376H107.962V4.5249H120.303ZM155.679 25.5454L151.614 25.2524C147.732 25.2524 145.242 26.4731 144.144 28.9146V54H131.802V14.376H143.375L143.777 19.4663C145.853 15.5845 148.746 13.6436 152.457 13.6436C153.775 13.6436 154.922 13.79 155.899 14.083L155.679 25.5454ZM171.792 14.376L172.195 19.0269C175.003 15.438 178.775 13.6436 183.511 13.6436C188.516 13.6436 191.897 15.6333 193.655 19.6128C196.341 15.6333 200.223 13.6436 205.301 13.6436C213.333 13.6436 217.459 18.502 217.679 28.2188V54H205.301V28.9878C205.301 26.9614 204.959 25.4844 204.275 24.5566C203.592 23.6289 202.347 23.165 200.54 23.165C198.099 23.165 196.28 24.2515 195.083 26.4243L195.12 26.937V54H182.742V29.061C182.742 26.9858 182.413 25.4844 181.753 24.5566C181.094 23.6289 179.837 23.165 177.981 23.165C175.613 23.165 173.807 24.2515 172.562 26.4243V54H160.22V14.376H171.792ZM243.899 54.7324C237.82 54.7324 232.901 52.9258 229.141 49.3125C225.381 45.6748 223.501 40.9507 223.501 35.1401V34.1147C223.501 30.062 224.246 26.4854 225.735 23.3848C227.249 20.2842 229.446 17.8916 232.327 16.207C235.208 14.498 238.626 13.6436 242.581 13.6436C248.147 13.6436 252.542 15.377 255.765 18.8438C258.987 22.2861 260.599 27.0957 260.599 33.2725V38.0698H236.062C236.502 40.2915 237.466 42.0371 238.956 43.3066C240.445 44.5762 242.374 45.2109 244.742 45.2109C248.648 45.2109 251.7 43.8438 253.897 41.1094L259.537 47.7744C257.999 49.8984 255.813 51.5952 252.981 52.8647C250.174 54.1099 247.146 54.7324 243.899 54.7324ZM242.508 23.165C238.895 23.165 236.746 25.5576 236.062 30.3428H248.514V29.3906C248.562 27.4131 248.062 25.8872 247.012 24.813C245.962 23.7144 244.461 23.165 242.508 23.165ZM279.971 4.5249V14.376H286.49V22.9453H279.971V41.0728C279.971 42.562 280.24 43.5996 280.777 44.1855C281.314 44.7715 282.376 45.0645 283.963 45.0645C285.184 45.0645 286.209 44.9912 287.039 44.8447V53.6704C284.817 54.3784 282.498 54.7324 280.081 54.7324C275.833 54.7324 272.696 53.7314 270.669 51.7295C268.643 49.7275 267.63 46.688 267.63 42.6108V22.9453H262.576V14.376H267.63V4.5249H279.971ZM315.347 25.5454L311.282 25.2524C307.4 25.2524 304.91 26.4731 303.812 28.9146V54H291.47V14.376H303.042L303.445 19.4663C305.521 15.5845 308.414 13.6436 312.125 13.6436C313.443 13.6436 314.59 13.79 315.567 14.083L315.347 25.5454ZM341.861 29.5737H318.863V24.1904L329.336 14.9253C330.557 13.8511 331.46 12.8013 332.046 11.7759C332.657 10.7261 332.962 9.95703 332.962 9.46875C332.962 7.61328 331.924 6.68555 329.849 6.68555C328.799 6.68555 327.969 7.05176 327.359 7.78418C326.749 8.5166 326.443 9.40771 326.443 10.4575H318.204C318.204 7.57666 319.241 5.15967 321.316 3.20654C323.416 1.229 326.126 0.240234 329.446 0.240234C333.206 0.240234 336.099 1.03369 338.125 2.62061C340.152 4.20752 341.165 6.49023 341.165 9.46875C341.165 11.2998 340.64 12.9844 339.59 14.5225C338.565 16.0361 336.282 18.0869 332.742 20.6748L329.776 23.165H341.861V29.5737Z" fill="#0000FF"/>
</svg>